<?xml version="1.0" encoding="utf-8"?>
<!-- Generator: Adobe Illustrator 23.0.1, SVG Export Plug-In . SVG Version: 6.00 Build 0)  -->
<svg version="1.1" id="Layer_1" xmlns="http://www.w3.org/2000/svg" xmlns:xlink="http://www.w3.org/1999/xlink" x="0px" y="0px"
	 viewBox="0 0 545.4 108.1" style="enable-background:new 0 0 545.4 108.1;" xml:space="preserve">
<style type="text/css">
	.st0{fill:url(#SVGID_1_);}
	.st1{fill:url(#SVGID_2_);}
	.st2{fill:url(#SVGID_3_);}
	.st3{fill:#FFFFFF;}
</style>
<title>ALG_logos_FINAL</title>
<linearGradient id="SVGID_1_" gradientUnits="userSpaceOnUse" x1="364.7" y1="-150.9631" x2="489.06" y2="-150.9631" gradientTransform="matrix(1 0 0 -1 -121.35 -132.11)">
	<stop  offset="0" style="stop-color:#009DC1"/>
	<stop  offset="0.62" style="stop-color:#00819C"/>
	<stop  offset="1" style="stop-color:#00748A"/>
</linearGradient>
<path class="st0" d="M243.4,23.7c0,0,12.3-7.1,17.3-9c4.9-1.8,9.9-3,15-3.8c5.6-0.8,11.3-1.1,16.9-0.9c3.7,0.1,7.4,0.5,11.1,1
	l10.5,1.9c0,0,10.5,1.9,15.9,2.8s15.6,2.2,19,2c3-0.2,6.1-0.6,9-1.5c3.5-0.8,9.5-3.9,9.5-3.9c-4.6,6.1-11,10.6-18.2,13
	c-6.9,2.3-14.3,2.9-24.7,1.9c-4.8-0.4-17.3-3.5-17.3-3.5s-17.6-3.3-22.2-3.8c-3.2-0.5-6.4-0.7-9.6-0.6c-4.8-0.1-9.6,0.1-14.5,0.5
	c-5.5,0.5-14.4,3.3-14.4,3.3L243.4,23.7z"/>
<linearGradient id="SVGID_2_" gradientUnits="userSpaceOnUse" x1="312.18" y1="-146.3947" x2="415" y2="-146.3947" gradientTransform="matrix(1 0 0 -1 -121.35 -132.11)">
	<stop  offset="0" style="stop-color:#2FC2E2"/>
	<stop  offset="0.63" style="stop-color:#1CA7BB"/>
	<stop  offset="1" style="stop-color:#149BA9"/>
</linearGradient>
<path class="st1" d="M293.6,3.4c0,0-11.3-3-15.6-3.3c-4.1-0.2-8.3-0.1-12.4,0.5c-4.5,0.7-8.9,1.8-13.2,3.1c-2.8,1-5.6,2.1-8.3,3.3
	l-7.6,3.9c0,0-6.1,3.6-10.1,5.5s-10.9,6.3-22,7c-4.6,0.1-9.2-0.5-13.5-1.8c2.7,1.8,5.5,3.4,8.5,4.8c2.8,1.2,8.1,1.9,10.9,2
	s7.5-0.6,11.2-1.4c2.8-0.6,5.6-1.5,8.2-2.8c3.5-1.5,12.5-6.6,12.5-6.6s12.7-6.6,16.2-8c2.3-1.1,4.8-2,7.2-2.7
	c3.7-1.1,7.4-2.1,11.2-2.9c3.9-0.6,7.8-0.8,11.8-0.7L293.6,3.4z"/>
<linearGradient id="SVGID_3_" gradientUnits="userSpaceOnUse" x1="284.01" y1="-170.2641" x2="461.8" y2="-170.2641" gradientTransform="matrix(1 0 0 -1 -121.35 -132.11)">
	<stop  offset="0" style="stop-color:#007093"/>
	<stop  offset="0.58" style="stop-color:#005D75"/>
	<stop  offset="1" style="stop-color:#005263"/>
</linearGradient>
<path class="st2" d="M340.4,46.1c0,0-17.6-10.1-24.7-12.9c-7-2.5-14.2-4.3-21.5-5.4c-7.2-1.2-16.8-1.1-23.5-1
	c-5.3,0.2-10.6,0.7-15.9,1.4L240.3,31c0,0-11.8,2.9-19.6,4.1s-19.5,3-29.8,2.7c-5-0.1-9.5-1.2-14.6-2.4s-13.6-5.6-13.6-5.6
	s6.5,5.6,10.9,8.9s10.3,5.8,15.2,7.5c6.4,2.1,13.1,3.2,19.9,3.3c18,0.3,40.2-5.6,40.2-5.6s21.1-4.1,27.7-4.9
	c12.8-1.5,25.6-1.6,38.4-0.2C322.8,39.6,340.4,46.1,340.4,46.1z"/>
<path class="st3" d="M26.8,107.7h-2.5c-1.3-3.1-2.5-6.4-3.8-9.6H6.3l-3.8,9.6H0c4.1-10,8.2-20.1,12.3-30.1h2.3L26.8,107.7z
	 M7.2,95.9h12.4l-6.2-15.6L7.2,95.9z"/>
<path class="st3" d="M45.9,77.5c6.6,0,10.2,3.4,10.2,9.1c0,5.9-3.8,9.1-10.3,9.1h-7.8v11.8h-2.3V77.5H45.9z M38.1,79.8v13.8h7.5
	c6.4,0,8.2-3.2,8.2-6.9c0-3.5-1.6-6.9-8.2-6.9H38.1z"/>
<path class="st3" d="M75.4,77.5c6.6,0,10.2,3.4,10.2,9.1c0,5.9-3.8,9.1-10.3,9.1h-7.8v11.8h-2.3V77.5H75.4z M67.6,79.8v13.8h7.5
	c6.4,0,8.2-3.2,8.2-6.9c0-3.5-1.6-6.9-8.2-6.9H67.6z"/>
<path class="st3" d="M113,105.4v2.2H94.9V77.5h2.3v27.9H113z"/>
<path class="st3" d="M124.2,91.3h14.4v2.2h-14.4v11.9h16.4v2.2h-18.7V77.5h18.7v2.2h-16.4V91.3z"/>
<path class="st3" d="M186.4,105.4v2.2h-18.1V77.5h2.3v27.9H186.4z"/>
<path class="st3" d="M197.5,91.3H212v2.2h-14.4v11.9h16.4v2.2h-18.7V77.5h18.7v2.2h-16.4V91.3z"/>
<path class="st3" d="M225.7,77.5v30.1h-2.3V77.5H225.7z"/>
<path class="st3" d="M255.4,100c0,4.7-3.6,8.1-10.5,8.1c-3.2,0-6.3-0.7-9.2-2.1v-2.5c2.8,1.5,5.9,2.3,9,2.2c4.7,0,8.3-1.8,8.3-5.8
	c0-9.5-17.2-4.4-17.2-14.8c0-4.2,2.8-8.2,9.9-8.2c2.8,0,5.5,0.6,8,1.8v2.4c-2.4-1.3-5.1-1.9-7.8-1.9c-5.2,0-7.8,2.2-7.8,5.9
	C238.2,93.1,255.4,88.5,255.4,100z"/>
<path class="st3" d="M267.3,77.5v18.4c0,6.7,3.3,10.1,9.6,10.1s9.6-3.4,9.6-10.1V77.5h2.3v18.3c0,8-4.3,12.2-12,12.2
	s-11.9-4.3-11.9-12.2V77.5H267.3z"/>
<path class="st3" d="M319.2,107.7l-8.1-12.5h-8.7v12.5h-2.3V77.5h10.7c6.4,0,10,3.1,10,8.7c0.2,4.3-2.9,8-7.2,8.6l8.4,12.9H319.2z
	 M302.4,79.7v13.2h8.2c6,0,7.8-3,7.8-6.6c0-3.4-1.5-6.6-7.8-6.6L302.4,79.7z"/>
<path class="st3" d="M333.4,91.3h14.4v2.2h-14.4v11.9h16.4v2.2h-18.7V77.5h18.7v2.2h-16.4V91.3z"/>
<path class="st3" d="M400.8,91.8v14.1c-3.2,1.4-6.7,2.2-10.2,2.1c-8.3,0-14-4.4-14-15.4s5.7-15.5,14-15.5c3.2,0,6.3,0.6,9.2,1.8v2.2
	c-2.9-1.2-5.9-1.8-9-1.8c-7.2,0-11.9,3.5-11.9,13.3s4.8,13.3,12,13.3c2.6,0,5.1-0.4,7.5-1.3V94.1H390v-2.2H400.8z"/>
<path class="st3" d="M430.7,107.7l-8.1-12.5H414v12.5h-2.3V77.5h10.7c6.4,0,10,3.1,10,8.7c0.2,4.3-2.9,8-7.2,8.6l8.4,12.9H430.7z
	 M413.9,79.7v13.2h8.2c6,0,7.8-3,7.8-6.6c0-3.4-1.5-6.6-7.8-6.6L413.9,79.7z"/>
<path class="st3" d="M469.3,92.6c0,10.2-4.5,15.5-13.9,15.5s-13.9-5.3-13.9-15.5S446,77,455.4,77S469.3,82.4,469.3,92.6z M467,92.6
	c0-8.9-3.5-13.3-11.6-13.3s-11.6,4.4-11.6,13.3s3.5,13.3,11.6,13.3S466.9,101.5,467,92.6L467,92.6z"/>
<path class="st3" d="M481.8,77.5v18.4c0,6.7,3.3,10.1,9.6,10.1s9.6-3.4,9.6-10.1V77.5h2.3v18.3c0,8-4.3,12.2-12,12.2
	s-11.9-4.3-11.9-12.2V77.5H481.8z"/>
<path class="st3" d="M524.7,77.5c6.6,0,10.2,3.4,10.2,9.1c0,5.9-3.8,9.1-10.3,9.1h-7.8v11.8h-2.3V77.5H524.7z M516.9,79.8v13.8h7.5
	c6.4,0,8.2-3.2,8.2-6.9c0-3.5-1.6-6.9-8.2-6.9H516.9z"/>
<path class="st3" d="M545.4,82.9c0,2.3-1.8,4.1-4.1,4.1c-2.3,0-4.1-1.8-4.1-4.1c0-2.3,1.8-4.1,4.1-4.1c0,0,0,0,0,0
	C543.6,78.8,545.4,80.6,545.4,82.9C545.4,82.9,545.4,82.9,545.4,82.9z M545.1,82.9c0-2.1-1.7-3.8-3.8-3.8c-2.1,0-3.8,1.7-3.8,3.8
	c0,2.1,1.7,3.8,3.8,3.8c0,0,0,0,0,0C543.4,86.7,545.1,85,545.1,82.9z M541.9,83.2l1.4,2h-0.4l-1.3-2h-1.4v2h-0.4v-4.7h1.7
	c1,0,1.6,0.5,1.6,1.4C543.2,82.6,542.6,83.2,541.9,83.2C541.9,83.2,541.9,83.2,541.9,83.2L541.9,83.2z M540.2,82.9h1.3
	c1,0,1.2-0.5,1.2-1s-0.3-1-1.2-1h-1.3V82.9z"/>
</svg>
